<?xml version="1.0" encoding="utf-8"?>
<!-- Generator: Adobe Illustrator 21.0.2, SVG Export Plug-In . SVG Version: 6.00 Build 0)  -->
<svg version="1.1" id="Layer_1" xmlns="http://www.w3.org/2000/svg" xmlns:xlink="http://www.w3.org/1999/xlink" x="0px" y="0px"
	 viewBox="0 0 700 700" style="enable-background:new 0 0 700 700;" xml:space="preserve">
<g>
	<polygon points="583.2,459.2 381.4,349 475,255.4 	"/>
	<polygon points="361.8,321.5 360.4,175.2 458.7,224.6 	"/>
	<polygon points="278,156.7 341.6,93.1 328.1,137 	"/>
	<polygon points="499.6,230.8 583.4,147.1 614.5,447.1 	"/>
	<polygon points="570.9,112.4 483.3,200 396.7,155.9 	"/>
	<polygon points="363,127.5 387.8,46.9 472.9,0.9 557.8,78.7 	"/>
	<polygon points="521.8,0 684.5,0 605.3,76.7 	"/>
	<polygon points="700,31.2 700,218.2 621.2,110 	"/>
	<polygon points="616.9,161.9 700,275.3 700,635.3 653.1,508.8 	"/>
	<polygon points="698.5,698.5 517.4,618 517.1,618 395.7,395.7 395.4,395.4 395.6,395.5 395.5,395.3 395.9,395.6 618.1,517 
		618.1,517.3 698.6,698.4 698.9,698.6 698.7,698.6 698.8,698.8 	"/>
	<polygon points="325,324.7 325.1,324.8 325,324.8 325,325 324.8,324.8 171.8,323.5 217,217 217,217 217,216.9 217.1,216.9 
		217.1,216.9 323.6,171.7 	"/>
	<polygon points="459.3,583.1 255.5,474.9 349.1,381.3 	"/>
	<polygon points="224.8,458.6 175.3,360.3 321.6,361.7 	"/>
	<polygon points="93.2,341.5 156.8,277.9 137.1,328 	"/>
	<polygon points="147.2,583.3 230.9,499.5 447.2,614.4 	"/>
	<polygon points="156.1,396.6 200.1,483.2 112.5,570.8 	"/>
	<polygon points="1,472.8 47,387.7 127.6,362.9 78.8,557.7 	"/>
	<polygon points="0,684.4 0,521.6 76.7,605.2 	"/>
	<polygon points="110.2,621.2 218.3,700 31.3,700 	"/>
	<polygon points="508.9,653.1 635.4,700 275.4,700 162,616.8 	"/>
</g>
</svg>
