<?xml version="1.0" encoding="utf-8"?>
<!-- Generator: Adobe Illustrator 23.1.1, SVG Export Plug-In . SVG Version: 6.00 Build 0)  -->
<svg version="1.1" id="Layer_1" xmlns="http://www.w3.org/2000/svg" xmlns:xlink="http://www.w3.org/1999/xlink" x="0px" y="0px"
	 viewBox="0 0 50 50" style="enable-background:new 0 0 50 50;" xml:space="preserve">
<style type="text/css">
	.st0{fill:#FF36C2;}
</style>
<g>
	<polygon class="st0" points="14.2,32.4 1.6,36.5 1.6,48.2 19.2,42.6 	"/>
	<path class="st0" d="M14.4,30.5l16.1-16.1c0-0.1,0-0.1,0-0.2l4-11.9L23.7,8L8,23.7L2.4,34.6l11.9-4C14.3,30.5,14.4,30.5,14.4,30.5z
		"/>
	<polygon class="st0" points="15.6,31.6 20.6,41.8 41.8,20.6 31.6,15.6 	"/>
	<polygon class="st0" points="42.6,19.2 48.2,1.6 36.5,1.6 32.4,14.2 	"/>
	<polygon class="st0" points="5.9,48.4 41.8,48.4 20.4,43.9 	"/>
	<polygon class="st0" points="21.9,42.6 48.2,48.2 42.6,21.9 	"/>
	<polygon class="st0" points="48.4,41.8 48.4,5.9 43.9,20.4 	"/>
</g>
</svg>
