<?xml version="1.0" encoding="utf-8"?>
<!-- Generator: Adobe Illustrator 23.0.4, SVG Export Plug-In . SVG Version: 6.00 Build 0)  -->
<svg version="1.1" id="Layer_1" xmlns="http://www.w3.org/2000/svg" xmlns:xlink="http://www.w3.org/1999/xlink" x="0px" y="0px"
	 viewBox="0 0 200 200" style="enable-background:new 0 0 200 200;" xml:space="preserve">
<style type="text/css">
	.st0{fill:#FF36C2;}
</style>
<path class="st0" d="M200.46,2.13c0-0.03,0-0.05-0.01-0.08c-0.03-0.15-0.07-0.29-0.12-0.43c-0.01-0.03-0.03-0.06-0.05-0.1
	c-0.05-0.11-0.11-0.21-0.17-0.3c-0.01-0.02-0.02-0.04-0.04-0.06c-0.01-0.02-0.03-0.03-0.04-0.04c-0.08-0.1-0.16-0.19-0.26-0.28
	c-0.02-0.01-0.03-0.03-0.05-0.05c-0.11-0.09-0.24-0.17-0.37-0.24c-0.04-0.02-0.07-0.03-0.11-0.05c-0.1-0.05-0.2-0.08-0.31-0.11
	c-0.05-0.01-0.09-0.03-0.14-0.04c-0.04-0.01-0.07-0.02-0.1-0.03c-0.08-0.01-0.15-0.01-0.23-0.01c-0.03,0-0.06-0.01-0.09-0.01h-53.57
	c-0.06,0-0.11,0.02-0.17,0.03c-0.12,0.01-0.23,0.03-0.35,0.05c-0.1,0.03-0.19,0.06-0.28,0.1c-0.05,0.02-0.11,0.03-0.17,0.06
	L92.55,27.02c-0.19,0.1-0.37,0.23-0.52,0.38L27.58,91.85c-0.15,0.15-0.28,0.33-0.38,0.52L0.72,143.66
	c-0.03,0.05-0.03,0.11-0.06,0.17c-0.04,0.09-0.07,0.19-0.1,0.28c-0.03,0.12-0.05,0.23-0.05,0.35c0,0.06-0.03,0.11-0.03,0.17v53.57
	c0,0.03,0.01,0.05,0.01,0.08c0,0.08,0,0.16,0.01,0.24c0.01,0.04,0.02,0.07,0.03,0.1c0.01,0.05,0.02,0.1,0.04,0.15
	c0.03,0.11,0.07,0.21,0.11,0.3c0.02,0.04,0.03,0.08,0.05,0.11c0.07,0.13,0.15,0.25,0.24,0.37c0.01,0.02,0.03,0.03,0.04,0.05
	c0.09,0.1,0.18,0.18,0.28,0.26c0.02,0.01,0.03,0.03,0.04,0.04c0.01,0.01,0.03,0.01,0.05,0.02c0.16,0.11,0.33,0.2,0.52,0.27
	c0.03,0.01,0.05,0.01,0.08,0.02c0.19,0.06,0.39,0.1,0.6,0.1h195.79c0,0,0,0,0,0c0.07,0,0.14,0,0.22-0.01c0.03,0,0.06-0.01,0.09-0.02
	c0.2-0.03,0.38-0.09,0.56-0.17c0,0,0.01,0,0.01,0c0.01,0,0.01-0.01,0.02-0.01c0.1-0.05,0.2-0.11,0.3-0.17
	c0.01,0,0.01-0.01,0.02-0.01c0.01-0.01,0.02-0.02,0.04-0.03c0.07-0.05,0.14-0.1,0.2-0.16c0.01-0.01,0.03-0.02,0.04-0.03
	c0.01-0.01,0.02-0.02,0.03-0.03c0.01-0.01,0.01-0.02,0.02-0.03c0.08-0.09,0.16-0.19,0.23-0.29c0.01-0.02,0.03-0.03,0.04-0.05
	c0.01-0.02,0.02-0.03,0.02-0.05c0.14-0.25,0.24-0.52,0.27-0.82c0-0.04,0-0.07,0-0.11c0-0.02,0.01-0.04,0.01-0.06
	c0-0.02,0-0.03,0-0.05V2.42C200.49,2.32,200.47,2.23,200.46,2.13z M129.11,57.16l17.22-52.64h49.18l-23.17,74.02L129.11,57.16z
	 M170.04,82.12L84.2,167.96l-1.9,1.9L61.2,126.72l32.85-32.85l32.85-32.85L170.04,82.12z M30.79,94.6l63.98-63.98l46.36-23.93
	l-17.18,50.59c-0.09,0.28-0.12,0.56-0.1,0.84l-65.56,65.57c-0.28-0.02-0.56,0.01-0.84,0.1L6.86,140.96L30.79,94.6z M4.7,146.16
	l52.64-17.22l21.38,43.23L4.7,195.34V146.16z M16.37,196.1l65.43-20.48l96.51,20.48H16.37z M85.93,172.19l84-84l2.43-2.43
	l23.28,109.72L85.93,172.19z M194.36,169.13l-18.57-87.51l18.67-59.63l1.81-5.8v161.94L194.36,169.13z"/>
</svg>
