<?xml version="1.0" encoding="utf-8"?>
<!-- Generator: Adobe Illustrator 23.0.4, SVG Export Plug-In . SVG Version: 6.00 Build 0)  -->
<svg version="1.1" id="Layer_1" xmlns="http://www.w3.org/2000/svg" xmlns:xlink="http://www.w3.org/1999/xlink" x="0px" y="0px"
	 viewBox="0 0 50 50" style="enable-background:new 0 0 50 50;" xml:space="preserve">
<style type="text/css">
	.st0{fill:#FF36C2;}
</style>
<path class="st0" d="M50,0.78c0-0.01-0.01-0.02-0.01-0.03c0-0.07-0.02-0.14-0.04-0.21c0-0.01-0.01-0.03-0.01-0.04
	c-0.02-0.06-0.06-0.12-0.1-0.18c-0.01-0.01-0.02-0.02-0.03-0.03c-0.01-0.02-0.03-0.03-0.04-0.04c-0.05-0.05-0.1-0.09-0.16-0.13
	C49.61,0.11,49.6,0.1,49.59,0.1c-0.07-0.04-0.15-0.06-0.23-0.08c-0.01,0-0.01-0.01-0.02-0.01c-0.01,0-0.02,0-0.03,0
	C49.28,0.01,49.25,0,49.22,0H35.96c-0.02,0-0.04,0.01-0.06,0.01c-0.04,0-0.09,0.01-0.13,0.02c-0.04,0.01-0.07,0.02-0.11,0.04
	c-0.02,0.01-0.04,0.01-0.06,0.02L22.92,6.64c-0.07,0.04-0.14,0.08-0.19,0.14L6.78,22.72c-0.06,0.06-0.1,0.12-0.14,0.19L0.09,35.61
	c-0.01,0.02-0.01,0.04-0.02,0.06c-0.01,0.03-0.03,0.07-0.04,0.11c-0.01,0.04-0.02,0.08-0.02,0.13c0,0.02-0.01,0.04-0.01,0.06v13.26
	c0,0.03,0.01,0.06,0.01,0.08c0,0.01,0,0.02,0,0.03c0,0.01,0.01,0.01,0.01,0.02c0.01,0.08,0.04,0.16,0.08,0.23
	c0.01,0.01,0.02,0.03,0.03,0.04c0.04,0.06,0.08,0.11,0.13,0.16c0.01,0.01,0.03,0.03,0.04,0.04c0.01,0.01,0.02,0.02,0.03,0.03
	c0.04,0.03,0.08,0.04,0.12,0.06c0.03,0.01,0.06,0.03,0.09,0.04C0.6,49.98,0.69,50,0.78,50h48.44c0,0,0,0,0,0c0.03,0,0.05,0,0.08,0
	c0.04,0,0.07-0.02,0.1-0.03c0.04-0.01,0.07-0.01,0.11-0.02c0.01,0,0.02-0.01,0.03-0.02c0.04-0.02,0.08-0.05,0.11-0.07
	c0.03-0.02,0.07-0.04,0.1-0.07c0,0,0.01-0.01,0.02-0.01c0.01-0.01,0.01-0.01,0.02-0.02c0.01-0.01,0.02-0.03,0.03-0.04
	c0.03-0.04,0.06-0.07,0.08-0.12c0.01-0.02,0.01-0.03,0.02-0.05c0,0,0,0,0,0c0.01-0.02,0.02-0.04,0.03-0.06
	c0.02-0.05,0.03-0.09,0.03-0.14c0-0.01,0.01-0.02,0.01-0.04c0-0.01,0-0.01,0-0.02c0-0.02,0-0.03,0-0.05c0,0,0-0.01,0-0.01V0.78z
	 M15.59,31.59l15.99-15.99l10.18,4.98l-21.2,21.2L15.59,31.59z M21.92,42.63l20.71-20.71l5.58,26.29L21.92,42.63z M48.44,5.88v35.9
	l-4.54-21.4L48.44,5.88z M42.62,19.25L32.4,14.19l4.13-12.63h11.63L42.62,19.25z M1.56,36.53l12.63-4.13l5.06,10.22L1.56,48.16
	V36.53z M7.97,23.74L23.74,7.97L34.6,2.36l-4.04,11.91c-0.02,0.06-0.02,0.11-0.02,0.17l-16.1,16.1c-0.06,0.01-0.11,0.01-0.17,0.03
	L2.36,34.6L7.97,23.74z M5.88,48.44l14.51-4.54l21.4,4.54H5.88z"/>
</svg>
